<svg viewBox="-20.8 324.2 727.7 736.6" fill="none" xmlns="http://www.w3.org/2000/svg">
<g id="Color/Bottom/Bird">
<g id="Color">
<path id="Fill 1" fill-rule="evenodd" clip-rule="evenodd" d="M307.914 772.093C309.378 768.534 308.152 766.507 304.557 766.382C291.077 766.553 284.992 754.647 275.404 747.397C263.056 735.219 288.634 724.691 272.348 706.066C266.448 697.314 263.916 686.418 255.187 679.652C248.38 673.966 244.616 667.336 248.676 657.835C250.388 653.832 249.766 648.815 250.106 644.252C249.672 625.67 280.644 623.544 283.877 640.764C285.804 645.479 287.445 649.111 293.378 648.767C299.596 649.456 302.277 656.81 309.234 652.453C314.893 650.173 316.383 650.886 319.293 655.968C322.427 661.437 328.34 665.299 328.846 672.297C329.053 673.327 330.803 675.047 331.648 675.087C341.014 673.723 342.651 685.841 351.018 686.109C359.524 684.755 359.387 694.718 365.869 696.438C384.73 694.928 372.623 710.23 390.811 701.133C406.481 699.235 406.189 735.956 424.741 728.624C435.427 726.555 438.98 742.549 446.513 748.171C447.36 749.199 448.632 750.538 449.746 750.573C458.03 750.834 461.615 757.795 467.327 761.816C474.182 765.992 480.051 771.166 485.358 777.146C503.155 799.115 464.86 817.966 453.233 834.217C447.705 840.412 440.505 840.776 432.915 838.489C422.551 842.514 413.335 837.45 403.581 835.413C393.153 833.237 385.555 828.68 382.446 818.268C381.045 813.578 378.454 812.531 374.184 814.089C360.755 819.892 347.104 809.578 345.639 795.867C345.945 787.373 336.592 788.18 330.95 790.453C320.167 792.545 304.972 784.187 307.914 772.093Z" fill="#FFC53E"/>
<g id="Group 5">
<path id="Fill 3" fill-rule="evenodd" clip-rule="evenodd" d="M69.0459 986C48.4722 984.445 23.2822 984.788 14.5983 962.072C-12.4813 921.211 0.754196 849.757 55.4792 841.529C169.83 828.108 197.299 987.283 69.1143 984.924C69.0911 985.283 69.0691 985.642 69.0459 986Z" fill="#FF3F56"/>
</g>
<path id="Fill 6" fill-rule="evenodd" clip-rule="evenodd" d="M226.455 677.442C226.906 698.294 223.744 715.432 231.402 733.892C245.796 765.545 257.9 799.554 285.174 822.608C306.609 833.318 328.584 845.091 351.659 852.065C379.523 857.26 371.995 885.34 353.227 882.843C275.202 861.594 178.606 823.863 167.583 732.307C161.333 703.755 162.187 673.662 178.837 648.706C180.954 644.698 194.219 633.576 194.074 644.193C189.453 662.801 180.198 680.916 182.693 700.516C186.585 734.533 197.738 765.767 220.349 792.149C223.832 796.735 238.924 808.038 234.509 794.185C222.323 765.663 198.824 741.46 199.896 708.767C200.744 683.674 200.855 657.758 211.752 634.642C235.426 614.103 225.669 667.801 226.455 677.442Z" fill="#3CC5FF"/>
<g id="Group 10">
<path id="Fill 8" fill-rule="evenodd" clip-rule="evenodd" d="M274.994 566.579C273.717 575.196 279.965 590.628 266.878 591.656C252.171 593.873 250.054 592.14 249.455 577.378C249.27 560.287 243.499 544.948 227.525 535.986C191.764 514.015 169.462 522.673 145.013 554.148C127.088 576.02 109.85 556.129 120.573 535.247C130.232 516.397 140.265 494.979 162.643 489.14C208.145 472.964 284.006 506.744 275.481 566.561C275.32 566.567 275.156 566.573 274.994 566.579Z" fill="#3A5AFF"/>
</g>
</g>
<g id="Ink">
<g id="Group 3">
<path id="Fill 1_2" fill-rule="evenodd" clip-rule="evenodd" d="M124.749 572.64C114.717 578.539 30.9189 603.684 80.1422 604.543C138.657 605.649 127.501 623.346 124.749 572.64ZM142.409 587.5C137.31 601.263 170.311 623.466 180.648 616.49C184.477 610.307 175.524 608.171 174.89 602.431C172.847 580.806 168.685 556.396 179.219 536.341C179.987 534.763 178.128 532.883 176.421 533.217C153.456 539.885 143.638 563.258 142.409 587.5ZM209.329 560.952C214.092 596.214 181.692 642.809 239.607 607.102C275.961 578.25 201.98 500.073 209.329 560.952ZM261.957 641.441C264.753 706.443 298.898 766.59 357.084 797.134C384.062 813.127 422.021 848.433 453.353 825.736C466.543 812.915 479.572 799.762 487.376 782.834C495.283 768.045 471.955 760.979 463.717 752.268C421.625 721.863 377.83 694.355 332.862 668.48C311.707 655.578 289.758 643.907 269.722 629.194C260.06 621.38 261.893 635.327 261.957 641.441ZM155.413 673.641C155.686 673.637 155.958 673.634 156.23 673.631C147.441 791.075 275.379 900.183 389.713 861.465C405.391 854.548 437.804 846.633 400.803 840.202C380.991 831.585 361.434 822.546 343.029 811.179C273.896 777.525 237.017 712.221 242.28 635.622C242.84 631.692 242.669 625.764 236.904 627.639C162.883 660.496 151.503 592.958 155.413 673.641ZM267.694 568.539C270.181 579.149 260.923 601.091 267.628 605.666C296.374 624.719 328.38 638.192 357.104 657.43C398.43 678.894 436.764 704.92 474.661 731.938C485.083 738.874 491.474 751.288 505.061 751.385C511.978 752.316 514.819 755.327 515.746 761.532C522.02 777.576 508.185 789.123 500.684 801.947C482.227 832.727 458.828 859.776 425.837 875.097C405.375 886.383 382.951 891.387 360.073 894.714C355.276 896.015 344.731 893.231 346.351 901.445C351.818 913.223 354.64 984.238 363.448 980.706C376.826 974.454 460.935 1001.24 421.76 1015.48C406.9 1018.37 361.27 986.4 371.648 1016.06C373.481 1022.8 375.245 1044.4 363.733 1037.33C355.132 1028.74 356.502 1014 348.6 1005.99C333.731 1012.58 329.464 1045.56 308.961 1039.19C300.078 1032.08 312.156 1022.6 315.954 1015.94C322.756 1003.73 339.783 994.212 335.415 978.656C330.894 952.51 323.236 926.331 325.897 899.542C325.856 886.866 303.054 891.868 294.55 886.299C263.625 878.394 236.181 861.952 209.635 845.555C206.77 846.702 207.729 849.346 207.964 851.333C209.919 867.765 209.824 884.331 211.954 900.802C217.221 912.86 204.754 961.879 219.066 961.075C228.558 958.325 285.494 994.755 262.53 1001.12C250.249 1004.81 225.832 971.812 220.91 984.382C218.248 995.865 226.381 1015.14 214.703 1021.77C198.814 1017.69 208.901 992.305 200.749 982.044C185.96 986.227 172.054 1012.58 155.463 1004.38C149.053 1001.73 148.078 993.484 153.085 988.63C164.792 974.367 193.458 970.975 196.626 951.769C196.776 912.654 189.685 873.819 192.285 834.648C192.157 815.922 175.302 802.628 165.437 787.993C132.821 751.345 134.284 700.114 137.379 654.144C134.879 646.013 149.91 622.933 139.749 621.828C106.477 628.473 71.0432 617.867 36.9065 618.589C32.4491 618.112 26.8541 618.672 24.5717 614.039C17.9039 583.116 101.391 566.425 124.089 556.186C137.906 547.533 140.625 527.82 159.471 521.138C181.161 513.456 147.651 497.836 142.231 472.524C148.305 444.626 172.711 497.17 176.724 505.675C177.369 510.402 207.011 513.289 205.016 504.807C207.194 484.731 206.231 460.939 217.233 443.746C237.018 436.376 222.01 494.501 223.819 505.547C222.881 518.672 220.348 515.913 233.262 521.353C237.819 523.271 238.459 523.191 241.077 519.057C249.004 507.414 260.793 497.401 273.84 493.202C275.475 507.371 260.538 519.157 249.793 527.028C242.108 528.867 266.539 561.433 268.021 568.918L267.694 568.539Z" fill="black"/>
</g>
<path id="Fill 4" fill-rule="evenodd" clip-rule="evenodd" d="M138.928 826.807C138.938 831.644 137.782 833.707 132.676 833.656C112.37 834.198 120.736 877.173 92.9521 862.687C75.4941 851.341 69.1798 841.778 58.7571 866.501C52.9855 873.837 52.4525 890.347 41.0089 889.994C37.2101 889.761 33.7185 885.481 35.4619 882.301C43.4783 853.506 57.6985 809.502 93.5167 839.696C99.071 843.828 102.085 838.031 103.677 833.06C104.344 815.078 140.834 801.743 138.928 826.807Z" fill="black"/>
<path id="Fill 6_2" fill-rule="evenodd" clip-rule="evenodd" d="M623.915 848.001C602.933 860.795 585.661 870.589 575.546 840.36C574.808 836.721 571.856 835.668 567.967 837.091C554.957 841.81 542.011 850.505 527.645 848.1C521.166 846.352 515.325 834.401 525.542 832.995C544.658 828.098 575.464 802.339 590.095 825.561C596.129 843.655 601.322 840.673 615.956 832.956C654.362 813.409 644.331 905.1 623.915 848.001Z" fill="black"/>
<path id="Fill 8_2" fill-rule="evenodd" clip-rule="evenodd" d="M452.494 611.001C469.475 605.771 480.326 633.373 487.439 618.872C496.082 594.991 526.827 599.074 532 624.311C530.276 645.52 511.764 612.629 505.017 622.929C500.293 631.067 495.485 644.123 484.48 644.438C451.012 638.836 462.401 611.9 438.424 654.337C404.62 674.951 429.923 601.41 452.494 611.001Z" fill="black"/>
<g id="Group 12">
<path id="Fill 10" fill-rule="evenodd" clip-rule="evenodd" d="M61.8952 464.953C86.0154 458.675 94.7972 492.736 83.5271 507.882C62.5853 520.173 78.1225 483.199 65.5564 482.034C56.0017 482.86 46.4263 484.636 36.8155 484.36C11.403 483.441 45.5412 439.816 26.6525 436.962C20.0165 436.662 2.18233 449.866 0 441.68C5.59359 420.552 45.7265 404.647 49.5706 434.419C52.7197 447.948 38.4773 469.589 61.8952 464.953Z" fill="black"/>
</g>
<path id="Fill 13" fill-rule="evenodd" clip-rule="evenodd" d="M581 915.144C572.528 947.172 573.393 907.376 559.339 915.858C550.461 919.377 542.238 925.047 533.194 928.079C507.822 935.004 522.61 900.405 503.8 906.105C491.533 907.691 479.372 910.631 467.006 911.203C456.121 913.735 459.212 898.261 467.494 896.792C486.521 892.088 531.249 867.452 532.153 902.522C536.513 919.964 576.31 878.239 581 915.144Z" fill="black"/>
<g id="Group 17">
<path id="Fill 15" fill-rule="evenodd" clip-rule="evenodd" d="M92.2849 391.754C120.513 383.141 124.98 446.532 104.02 431.628C96.1768 405.8 108.725 400.06 75.3066 410.036C34.4818 407.816 92.6218 344.385 35.8306 362.252C26.2566 363.938 25.9537 355.495 32.4605 352.731C49.5568 340.353 81.547 341.398 82.4883 367.764C82.7899 377.901 74.4114 396.007 92.2849 391.754Z" fill="black"/>
</g>
<path id="Fill 18" fill-rule="evenodd" clip-rule="evenodd" d="M392.738 612.942C384.645 612.659 380.576 609.62 375.354 615.973C366.568 624.109 359.045 605.596 363.154 598.515C371.139 579.08 391.696 603.802 400.465 595.227C400.751 581.48 369.643 566.395 393.081 552.774C399.434 550.552 447.052 538.21 442.723 550.089C438.24 560.115 425.689 561.941 417.263 567.649C405.463 571.738 414.351 579.538 415.106 587.879C416.972 603.182 408.205 615.167 392.738 612.942Z" fill="black"/>
<path id="Fill 20" fill-rule="evenodd" clip-rule="evenodd" d="M76.4824 752.528C97.759 714.684 135.024 769.188 101.714 760.375C91.5965 758.265 93.8677 779.046 80.2945 774.668C68.328 775.628 52.6446 752.976 46.6077 769.634C42.8213 780.38 33.154 799.656 19.4967 790.688C13.177 781.061 28.7909 767.913 30.8841 757.4C43.6563 736.129 58.4864 741.885 76.4824 752.528Z" fill="black"/>
<path id="Fill 22" fill-rule="evenodd" clip-rule="evenodd" d="M593.939 719.52C594.535 724.07 590.742 733.019 585.17 726.966C580.887 720.006 578.941 709.525 567.686 717.498C537.498 732.238 532.913 702.058 524.341 709.17C514.552 715.63 504.281 724.837 491.955 719.04C478.082 707.318 517.168 694.654 524.342 687.599C535.09 680.863 545.142 688.191 549.405 698.468C561.15 719.545 590.076 665.718 593.939 719.52Z" fill="black"/>
<path id="Fill 24" fill-rule="evenodd" clip-rule="evenodd" d="M69.6853 712.136C60.4261 711.296 45.3391 693.342 36.8799 699.608C30.8463 705.482 28.081 722.945 17.6138 719.571C14.1763 718.26 8.6237 718.681 9.02066 713.363C11.8116 692.203 34.833 665.494 55.4142 684.581C60.4042 687.544 66.9663 700.147 72.57 692.295C90.6014 655.369 112.33 696.535 100.753 699.455C84.7443 684.169 87.6241 716.758 69.6853 712.136Z" fill="black"/>
<path id="Fill 26" fill-rule="evenodd" clip-rule="evenodd" d="M475.928 975.176C468.827 975.807 443.625 972.069 456.706 962.261C472.216 961.431 497.437 948.449 505.814 966.645C508.212 970.478 506.902 980.61 514.378 977.609C532.46 968.327 553.86 961.665 566.641 982.423C569.51 985.801 567.579 989.387 563.275 989.03C525.289 967.298 512.897 1020.97 491.082 980.24C488.983 972.672 481.809 975.096 475.948 974.751C475.941 974.892 475.935 975.034 475.928 975.176Z" fill="black"/>
<path id="Fill 28" fill-rule="evenodd" clip-rule="evenodd" d="M155 896.696C142.946 947.467 118.896 906.857 107.965 914.86C100.891 921.564 97.2027 933.185 88.0847 937C73.2436 935.562 101.524 867.635 129.939 897.323C137.325 907.757 151.958 874.766 155 896.696Z" fill="black"/>
<path id="Fill 30" fill-rule="evenodd" clip-rule="evenodd" d="M346 390.415C339.084 437.417 315.395 404.352 307.208 419.376C304.128 426.436 303.342 439.466 293.284 438.987C283.009 431.937 290.377 410.826 293.291 400.25C298.457 387.861 312.684 389.915 322.385 394.972C331.079 397.76 331.255 383.424 339.176 381.618C349.002 378.769 344.42 386.477 346 390.415Z" fill="black"/>
<g id="Group 34">
<path id="Fill 32" fill-rule="evenodd" clip-rule="evenodd" d="M655.028 926.974C648.195 926.807 642.74 921.398 641.622 914.274C640.934 904.45 631.464 908.926 624.819 908.62C601.577 901.17 632.938 888.397 642.174 884.633C659.517 875.455 656.853 898.876 662.269 907.943C675.282 902.543 685.126 901.468 686.006 918.394C686.699 922.157 659.538 926.665 655.028 926.974Z" fill="black"/>
</g>
<path id="Fill 35" fill-rule="evenodd" clip-rule="evenodd" d="M190.199 414.312C188.764 469.108 156.929 378.967 189.894 380.348C196.147 378.598 207.767 384.817 207.122 374.041C202.778 361.645 221.916 343.462 225 361.764C219.122 371.688 223.066 383.748 217.232 393.425C206.228 409.85 183.741 378.647 190.199 414.312Z" fill="black"/>
<path id="Fill 37" fill-rule="evenodd" clip-rule="evenodd" d="M645.939 984C635.633 980.39 628.46 969.845 616.583 973.095C593.929 967.316 636.154 937.558 646.971 963.393C654.653 969.14 664.619 957.218 673.734 958.067C675.936 957.682 678.247 960.246 677.979 962.431C677.57 977.891 657.59 978.797 645.939 984Z" fill="black"/>
<path id="Fill 39" fill-rule="evenodd" clip-rule="evenodd" d="M267.331 568.383C268.261 556.464 268.24 556.371 279.829 553.997C289.078 552.598 298.934 548.409 307.777 553.327C316.58 566.555 275.26 573.742 267 568.01L267.331 568.383Z" fill="black"/>
</g>
</g>
</svg>
